<?xml version="1.0" encoding="iso-8859-1"?>
<!-- Generator: Adobe Illustrator 24.2.3, SVG Export Plug-In . SVG Version: 6.00 Build 0)  -->
<svg version="1.1" id="Layer_1" xmlns="http://www.w3.org/2000/svg" xmlns:xlink="http://www.w3.org/1999/xlink" x="0px" y="0px"
	 viewBox="0 0 48 48" style="enable-background:new 0 0 48 48;" xml:space="preserve">
<path d="M24,4C12.972,4,4,12.972,4,24s8.972,20,20,20s20-8.972,20-20S35.028,4,24,4z M28.561,30.561
	C28.268,30.854,27.884,31,27.5,31s-0.768-0.146-1.061-0.439l-5-5C21.158,25.279,21,24.898,21,24.5v-11c0-0.829,0.671-1.5,1.5-1.5
	s1.5,0.671,1.5,1.5v10.379l4.561,4.561C29.146,29.025,29.146,29.975,28.561,30.561z"/>
</svg>